<svg width="16" height="16" viewBox="0 0 16 16" fill="none" xmlns="http://www.w3.org/2000/svg">
<g clip-path="url(#clip0_421_2601)">
<path d="M5.35399 4.92681L7.53799 0.311459C7.57993 0.218612 7.64547 0.140192 7.72715 0.0851281C7.80883 0.0300642 7.90336 0.000568819 7.99999 0C8.18299 0 8.36599 0.103464 8.46499 0.311459L10.649 4.92681L15.547 5.66919C15.6691 5.68966 15.7808 5.75442 15.8633 5.85255C15.9459 5.95068 15.9941 6.07617 16 6.20784C16.007 6.29551 15.9953 6.38372 15.9659 6.4659C15.9364 6.54809 15.89 6.62213 15.83 6.6825L12.307 10.2621L13.137 15.3073C13.215 15.7799 12.777 16.15 12.391 15.9388L7.99999 13.5325L3.61099 15.9388C3.56508 15.9642 3.51587 15.9822 3.46499 15.9921C3.12299 16.0561 2.79699 15.7212 2.86499 15.3073L3.69499 10.2621L0.172988 6.6825C0.118233 6.62724 0.0747109 6.56057 0.0451227 6.48663C0.0155346 6.41268 0.000511966 6.33304 0.00098751 6.25264C0.00103952 6.13898 0.0304489 6.02752 0.0859875 5.93052C0.125386 5.86019 0.179086 5.8002 0.243125 5.75497C0.307164 5.70974 0.379908 5.68043 0.455988 5.66919L5.35399 4.92681Z" fill="#F8D24C"/>
</g>
<defs>
<clipPath id="clip0_421_2601">
<rect width="16" height="16" fill="white"/>
</clipPath>
</defs>
</svg>
