<svg width="16" height="16" viewBox="0 0 16 16" fill="none" xmlns="http://www.w3.org/2000/svg">
<g clip-path="url(#clip0_421_2720)">
<path d="M10.648 4.92681L8.46397 0.311459C8.42202 0.218612 8.35648 0.140192 8.2748 0.0851281C8.19312 0.0300642 8.09859 0.000568819 8.00197 0C7.81897 0 7.63597 0.103464 7.53697 0.311459L5.35297 4.92681L0.454966 5.66919C0.332878 5.68966 0.221146 5.75442 0.138621 5.85255C0.0560968 5.95068 0.00783074 6.07617 0.00196552 6.20784C-0.00501451 6.2955 0.00664807 6.38372 0.0360832 6.4659C0.0655184 6.54809 0.111967 6.62213 0.171966 6.6825L3.69497 10.2621L2.86497 15.3073C2.78697 15.7799 3.22497 16.15 3.61097 15.9388L8.00197 13.5325L12.391 15.9388C12.4369 15.9642 12.4861 15.9822 12.537 15.9921C12.879 16.0561 13.205 15.7212 13.137 15.3073L12.307 10.2621L15.829 6.6825C15.8837 6.62724 15.9272 6.56057 15.9568 6.48663C15.9864 6.41268 16.0014 6.33304 16.001 6.25264C16.0009 6.13898 15.9715 6.02752 15.916 5.93052C15.8766 5.86019 15.8229 5.8002 15.7588 5.75497C15.6948 5.70974 15.622 5.68043 15.546 5.66919L10.648 4.92681V4.92681ZM8.00197 12.2952C7.92125 12.2948 7.84164 12.3153 7.76997 12.3549L4.08397 14.3751L4.77797 10.1544C4.79435 10.0573 4.78815 9.95746 4.7599 9.86355C4.73165 9.76963 4.68223 9.68454 4.61597 9.61575L1.70897 6.66116L5.76097 6.04678C5.84487 6.03326 5.92445 5.99826 5.9929 5.94476C6.06134 5.89126 6.11661 5.82086 6.15397 5.73959L8.00097 1.83782L8.00197 1.84102V12.2941V12.2952Z" fill="#F8D24C"/>
</g>
<defs>
<clipPath id="clip0_421_2720">
<rect width="16" height="16" fill="white"/>
</clipPath>
</defs>
</svg>
