<svg width="215" height="58" viewBox="0 0 215 58" fill="none" xmlns="http://www.w3.org/2000/svg">
<path d="M38.375 12.3203L38.2898 12.2605L37.6466 11.8094L35.3804 14.8853L33.4977 17.4395L24.1008 30.1873L17.2407 18.9828L6.59149 35.5673C6.59149 35.5673 6.58084 35.5631 6.57658 35.5609L6.1634 36.2278L5.88652 36.6745L5.74595 36.9032L4.95791 38.1772L4.34239 39.1732L3.5437 40.3595C4.3147 41.6591 5.22627 42.8625 6.25711 43.9547L8.54455 40.7357L8.57437 40.693L16.9616 27.5561L23.6664 38.5384L36.4794 21.5584L38.5411 18.8267L41.6997 14.6416L38.3792 12.3203H38.375Z" fill="#59BC7A"/>
<path d="M35.8301 10.5419L37.6447 11.8116L38.29 12.2605L38.2943 12.254L38.3752 12.3203L41.6978 14.6437L43.6338 15.9967L44.2727 7.66492L35.8301 10.5419Z" fill="#59BC7A"/>
<path d="M34.0172 12.6986C30.3389 9.88788 25.9558 8.40021 21.3383 8.40021C9.77967 8.40021 0.376465 17.8371 0.376465 29.435C0.376465 32.265 0.930221 35.0137 2.02283 37.6043L2.59788 38.968L5.68401 33.9792L5.59881 33.6586C5.23035 32.2799 5.04506 30.8585 5.04506 29.435C5.04506 20.417 12.3546 13.0812 21.3404 13.0812C24.9441 13.0812 28.3646 14.2462 31.2313 16.452L31.849 16.9287L34.6157 13.1561L34.0172 12.6986Z" fill="white"/>
<path d="M40.4684 20.8552L39.9402 19.6753L36.6986 23.9695L36.8243 24.3521C37.3631 25.9979 37.6357 27.71 37.6357 29.4371C37.6357 38.455 30.3262 45.7908 21.3404 45.7908C17.4598 45.7908 13.6943 44.3886 10.7381 41.8408L10.1013 41.2914L7.38574 45.1346L7.92885 45.5877C11.688 48.7362 16.4503 50.4718 21.3404 50.4718C32.899 50.4718 42.3001 41.0349 42.3001 29.4371C42.3001 26.4596 41.6846 23.5719 40.4706 20.8552H40.4684Z" fill="white"/>
<path d="M211.653 34.1182C213.304 34.1182 214.643 32.6664 214.643 30.8756C214.643 29.0848 213.304 27.6331 211.653 27.6331C210.001 27.6331 208.663 29.0848 208.663 30.8756C208.663 32.6664 210.001 34.1182 211.653 34.1182Z" fill="#59BC7A"/>
<path d="M53.6035 34.1951V8.36816H59.2902V34.1951H53.6035Z" fill="white"/>
<path d="M64.7212 34.1951V8.36816H68.7253L73.9987 20.8018V8.36816H78.7014V34.1951H74.8571L69.5836 20.8039V34.1951H64.7233H64.7212Z" fill="white"/>
<path d="M84.1348 34.1951V8.36816H90.6478C92.8926 8.36816 94.6391 8.65031 95.8893 9.21246C97.1395 9.77461 98.017 10.6574 98.526 11.8586C99.0351 13.0599 99.2885 14.616 99.2885 16.529V25.9018C99.2885 27.8362 99.0351 29.4136 98.526 30.6362C98.017 31.8589 97.1438 32.7566 95.9042 33.3316C94.6647 33.9044 92.9352 34.193 90.7096 34.193H84.1348V34.1951ZM89.8193 30.2408H90.7096C91.5785 30.2408 92.2026 30.1126 92.5838 29.8582C92.965 29.6038 93.2036 29.2212 93.2994 28.7104C93.3931 28.1995 93.4421 27.5626 93.4421 26.7974V15.5415C93.4421 14.7763 93.3825 14.1607 93.2675 13.6926C93.1503 13.2245 92.9012 12.8846 92.5199 12.673C92.1387 12.4614 91.5232 12.3545 90.6776 12.3545H89.8193V30.2408Z" fill="white"/>
<path d="M104.372 34.1951V8.36816H110.059V34.1951H104.372Z" fill="white"/>
<path d="M122.861 34.5777C120.913 34.5777 119.373 34.2229 118.24 33.509C117.107 32.7972 116.306 31.799 115.841 30.5123C115.375 29.2277 115.143 27.7122 115.143 25.9702V16.6594C115.143 14.8746 115.375 13.3378 115.841 12.051C116.308 10.7643 117.107 9.77036 118.24 9.06927C119.373 8.36818 120.913 8.01764 122.861 8.01764C124.81 8.01764 126.256 8.32971 127.325 8.95812C128.395 9.58654 129.153 10.4629 129.598 11.5893C130.043 12.7158 130.265 14.0132 130.265 15.4795V17.711H124.706V15.129C124.706 14.6181 124.678 14.1286 124.627 13.6627C124.574 13.1946 124.42 12.8056 124.167 12.4978C123.913 12.19 123.479 12.0361 122.863 12.0361C122.248 12.0361 121.83 12.1964 121.545 12.5149C121.26 12.8333 121.079 13.233 121.006 13.7097C120.932 14.1885 120.896 14.6929 120.896 15.2252V27.3723C120.896 27.9473 120.942 28.4731 121.038 28.9519C121.134 29.4307 121.324 29.8133 121.609 30.0997C121.894 30.3862 122.314 30.5294 122.863 30.5294C123.456 30.5294 123.879 30.3755 124.135 30.0677C124.388 29.7599 124.548 29.3623 124.612 28.8728C124.676 28.3855 124.708 27.8853 124.708 27.3745V24.6642H130.267V26.8957C130.267 28.362 130.05 29.6744 129.615 30.8329C129.181 31.9914 128.429 32.9041 127.36 33.5753C126.29 34.2443 124.791 34.5799 122.863 34.5799L122.861 34.5777Z" fill="white"/>
<path d="M133.726 34.1951L138.586 8.36816H145.067L149.864 34.1951H144.622L143.766 28.7424H139.985L139.095 34.1951H133.726ZM140.494 25.3311H143.227L141.862 15.2572L140.497 25.3311H140.494Z" fill="white"/>
<path d="M155.013 34.1951V12.6089H151.137V8.36816H164.576V12.6089H160.732V34.1951H155.013Z" fill="white"/>
<path d="M175.537 34.5777C173.609 34.5777 172.084 34.2379 170.962 33.5582C169.839 32.8784 169.034 31.8995 168.546 30.6256C168.059 29.3516 167.816 27.8319 167.816 26.0664V16.4692C167.816 14.6844 168.059 13.1646 168.546 11.91C169.034 10.6574 169.837 9.69554 170.962 9.02438C172.084 8.35536 173.609 8.01978 175.537 8.01978C177.464 8.01978 179.025 8.35536 180.158 9.02438C181.291 9.69341 182.101 10.6553 182.588 11.91C183.076 13.1646 183.319 14.6844 183.319 16.4692V26.0664C183.319 27.8319 183.074 29.3516 182.588 30.6256C182.101 31.9016 181.291 32.8784 180.158 33.5582C179.025 34.2379 177.483 34.5777 175.537 34.5777ZM175.537 30.5272C176.129 30.5272 176.563 30.3776 176.84 30.0805C177.115 29.7834 177.296 29.4008 177.379 28.9327C177.464 28.4646 177.507 27.9879 177.507 27.4985V15.0648C177.507 14.554 177.464 14.0709 177.379 13.6135C177.294 13.1561 177.113 12.7799 176.84 12.4807C176.563 12.1835 176.129 12.0339 175.537 12.0339C174.985 12.0339 174.572 12.1835 174.297 12.4807C174.022 12.7778 173.841 13.1561 173.758 13.6135C173.673 14.0709 173.63 14.554 173.63 15.0648V27.4985C173.63 27.9879 173.667 28.4667 173.741 28.9327C173.816 29.4008 173.984 29.7834 174.25 30.0805C174.516 30.3776 174.944 30.5272 175.537 30.5272Z" fill="white"/>
<path d="M188.371 34.1951V8.36816H195.454C197.19 8.36816 198.696 8.56054 199.965 8.941C201.237 9.32361 202.227 10.0097 202.937 10.9972C203.646 11.9869 204.001 13.3826 204.001 15.1909C204.001 16.2533 203.916 17.2002 203.748 18.0273C203.578 18.8567 203.267 19.5749 202.811 20.1798C202.355 20.7847 201.703 21.2913 200.858 21.6931L204.385 34.193H198.509L195.68 22.6186H194.059V34.193H188.373L188.371 34.1951ZM194.057 19.3376H195.646C196.451 19.3376 197.077 19.1944 197.52 18.908C197.965 18.6216 198.276 18.2069 198.457 17.664C198.636 17.1232 198.728 16.4691 198.728 15.7018C198.728 14.5967 198.526 13.7375 198.123 13.1197C197.721 12.5042 196.979 12.1942 195.9 12.1942H194.057V19.3355V19.3376Z" fill="white"/>
<path d="M53.3541 53.584V43.8158L53.1731 42.0438H54.7726L54.9685 43.8158V53.584H53.3541Z" fill="white"/>
<path d="M57.2623 50.5552V43.8158L57.0813 42.0438H58.6808L58.8768 43.8158V50.5552H57.2623Z" fill="white"/>
<path d="M60.9424 50.5552V46.4363L61.1681 45.421H62.5568V50.5552H60.9424ZM66.0582 50.5552V44.8011C66.0582 44.2347 65.9347 43.8414 65.6877 43.6191C65.4406 43.3968 65.1126 43.2857 64.6994 43.2857H60.9871V42.0438H65.1062C65.6089 42.0438 66.0519 42.1379 66.4331 42.3238C66.8143 42.5098 67.1168 42.8112 67.3383 43.2237C67.5598 43.6384 67.6705 44.1877 67.6705 44.8738V50.5531H66.0561L66.0582 50.5552Z" fill="white"/>
<path d="M69.6514 50.5552V46.4363L69.8771 45.421H71.2658V50.5552H69.6514ZM74.7672 50.5552V44.8011C74.7672 44.2347 74.6437 43.8414 74.3966 43.6191C74.1496 43.3968 73.8216 43.2857 73.4084 43.2857H69.6961V42.0438H73.8152C74.3178 42.0438 74.7608 42.1379 75.1421 42.3238C75.5254 42.5098 75.8258 42.8112 76.0473 43.2237C76.2688 43.6384 76.3795 44.1877 76.3795 44.8738V50.5531H74.7651L74.7672 50.5552Z" fill="white"/>
<path d="M81.6169 53.584V46.2845L81.8427 45.2543H83.2314V53.584H81.6169ZM84.4709 50.5552L84.3197 49.3133C84.6605 49.2834 84.9736 49.215 85.2547 49.1081C85.5358 49.0013 85.7829 48.8388 85.9937 48.6165C86.2046 48.3942 86.375 48.0864 86.507 47.6931C86.637 47.2998 86.7222 46.8039 86.7626 46.2097L86.9884 43.2878H81.6468V42.046H88.7242L88.6646 43.1361L88.4537 45.8314C88.4239 46.5581 88.3174 47.2101 88.1364 47.785C87.9553 48.36 87.7019 48.8516 87.3739 49.262C87.0459 49.6703 86.6412 49.9866 86.1599 50.2089C85.6764 50.4312 85.1141 50.5466 84.4688 50.5573L84.4709 50.5552Z" fill="white"/>
<path d="M90.7326 50.5552V43.8158L90.5515 42.0438H92.151L92.347 43.8158V50.5552H90.7326Z" fill="white"/>
<path d="M95.3648 50.707L94.2637 42.0438H95.8035L96.6789 49.3283C97.4542 49.277 98.1208 49.1402 98.6788 48.9115C99.2368 48.6849 99.6947 48.3664 100.053 47.9582C100.41 47.5499 100.674 47.0519 100.845 46.4662C101.015 45.8806 101.1 45.2094 101.1 44.4527L101.071 42.046H102.685L102.7 44.3779C102.711 45.7908 102.451 46.9685 101.923 47.9069C101.394 48.8452 100.587 49.5506 99.5009 50.0187C98.4147 50.4889 97.0346 50.7176 95.3669 50.7091L95.3648 50.707ZM96.1805 47.3597L95.8035 46.2845C96.3062 46.0922 96.6959 45.8677 96.9728 45.6112C97.2497 45.3526 97.4456 45.017 97.5606 44.6045C97.6757 44.1898 97.7396 43.6555 97.7502 42.9993V42.0609H99.2901L99.2752 42.9693C99.2645 43.7175 99.1644 44.3672 98.9727 44.923C98.781 45.4787 98.4616 45.9532 98.0143 46.3465C97.567 46.7398 96.9558 47.0797 96.1805 47.3618V47.3597Z" fill="white"/>
<path d="M108.071 47.3747V43.8158L107.89 42.0438H109.49L109.686 43.8158V46.1178L109.671 47.0711L108.071 47.3747Z" fill="white"/>
<path d="M115.255 50.5552V45.0576C115.255 44.6644 115.294 44.3181 115.368 44.021C115.443 43.7239 115.547 43.4781 115.677 43.2857H111.603V42.0438H118.333V43.2857H117.2C117.059 43.5379 116.968 43.8286 116.929 44.1578C116.889 44.4848 116.87 44.7862 116.87 45.0576V50.5552H115.255Z" fill="white"/>
<path d="M120.401 50.5552V43.8158L120.22 42.0438H121.82L122.016 43.8158V50.5552H120.401Z" fill="white"/>
<path d="M124.037 50.5552L125.123 44.6943L123.945 42.0438H125.619L126.661 44.7541L125.649 50.5552H124.035H124.037ZM127.057 50.568L127.223 49.3411C128.018 49.5121 128.65 49.4972 129.117 49.2962C129.585 49.0953 129.922 48.7213 130.128 48.1762C130.335 47.6312 130.429 46.9408 130.407 46.1007C130.397 45.3847 130.309 44.8161 130.143 44.3972C129.977 43.9782 129.751 43.679 129.464 43.4973C129.176 43.3156 128.842 43.2237 128.461 43.2237C128.107 43.2237 127.807 43.2985 127.555 43.4439C127.304 43.5914 127.104 43.7901 126.951 44.0424C126.799 44.2946 126.695 44.5789 126.633 44.8909L126.226 44.1193C126.407 43.352 126.733 42.7941 127.208 42.4457C127.681 42.0973 128.194 41.9241 128.748 41.9241C129.221 41.9241 129.651 42.0032 130.039 42.1593C130.426 42.3153 130.761 42.5632 131.042 42.901C131.323 43.2387 131.542 43.6726 131.698 44.2027C131.853 44.7328 131.936 45.3654 131.947 46.1029C131.966 47.2443 131.789 48.1869 131.413 48.935C131.036 49.6831 130.48 50.2025 129.745 50.4954C129.01 50.7882 128.116 50.8138 127.059 50.5702L127.057 50.568Z" fill="white"/>
<path d="M133.968 47.3747V43.8158L133.787 42.0438H135.387L135.583 43.8158V46.1178L135.568 47.0711L133.968 47.3747Z" fill="white"/>
<path d="M137.393 43.2836V39.6948H138.856V43.2836H137.393ZM139.114 50.5552L141.936 43.2857H137.393V42.0438H143.55V43.3904L140.728 50.5552H139.114Z" fill="white"/>
<path d="M145.013 43.2836V39.6948H146.477V43.2836H145.013ZM146.734 50.5552L149.556 43.2857H145.013V42.0438H151.171V43.3904L148.349 50.5552H146.734Z" fill="white"/>
<path d="M156.197 50.5552V46.4363L156.423 45.421H157.811V50.5552H156.197ZM161.313 50.5552V44.8011C161.313 44.2347 161.189 43.8414 160.942 43.6191C160.695 43.3968 160.367 43.2857 159.954 43.2857H156.242V42.0438H160.361C160.863 42.0438 161.306 42.1379 161.688 42.3238C162.071 42.5098 162.371 42.8112 162.593 43.2237C162.814 43.6384 162.925 44.1877 162.925 44.8738V50.5531H161.311L161.313 50.5552Z" fill="white"/>
<path d="M164.646 43.2836V39.6948H166.109V43.2836H164.646ZM166.367 50.5552L169.189 43.2857H164.646V42.0438H170.804V43.3904L167.982 50.5552H166.367Z" fill="white"/>
<path d="M172.269 43.2836V39.6948H173.732V43.2836H172.269ZM173.987 50.5552L176.81 43.2857H172.267V42.0438H178.424V43.3904L175.602 50.5552H173.987Z" fill="white"/>
<path d="M179.889 50.5552V49.3133H182.062C182.554 49.3133 182.956 49.2129 183.269 49.0098C183.58 48.8089 183.813 48.5203 183.964 48.1463C184.115 47.7744 184.19 47.3298 184.19 46.8146V45.7844C184.19 45.2607 184.113 44.8097 183.964 44.4378C183.813 44.0637 183.58 43.7794 183.269 43.5828C182.958 43.3861 182.556 43.2878 182.062 43.2878H179.889V42.046H182.456C183.191 42.046 183.804 42.1956 184.296 42.4927C184.788 42.7898 185.163 43.2237 185.421 43.7944C185.676 44.3651 185.806 45.0534 185.806 45.8613V46.7398C185.806 47.5371 185.678 48.2211 185.421 48.7918C185.163 49.3625 184.79 49.7985 184.296 50.102C183.804 50.4056 183.189 50.5573 182.456 50.5573H179.889V50.5552Z" fill="white"/>
<path d="M187.599 50.5552L188.686 44.6943L187.508 42.0438H189.182L190.223 44.7541L189.212 50.5552H187.597H187.599ZM190.617 50.568L190.783 49.3411C191.578 49.5121 192.21 49.4972 192.677 49.2962C193.145 49.0953 193.482 48.7213 193.689 48.1762C193.895 47.6312 193.989 46.9408 193.968 46.1007C193.957 45.3847 193.87 44.8161 193.703 44.3972C193.537 43.9782 193.312 43.679 193.024 43.4973C192.737 43.3156 192.402 43.2237 192.021 43.2237C191.667 43.2237 191.367 43.2985 191.116 43.4439C190.864 43.5914 190.664 43.7901 190.511 44.0424C190.36 44.2946 190.255 44.5789 190.194 44.8909L189.787 44.1193C189.968 43.352 190.294 42.7941 190.769 42.4457C191.241 42.0973 191.755 41.9241 192.308 41.9241C192.781 41.9241 193.211 42.0032 193.599 42.1593C193.987 42.3153 194.321 42.5632 194.602 42.901C194.883 43.2387 195.103 43.6726 195.258 44.2027C195.414 44.7328 195.497 45.3654 195.507 46.1029C195.527 47.2443 195.35 48.1869 194.973 48.935C194.596 49.6831 194.04 50.2025 193.305 50.4954C192.57 50.7882 191.676 50.8138 190.619 50.5702L190.617 50.568Z" fill="white"/>
<path d="M197.303 50.5552V46.4363L197.529 45.421H198.917V50.5552H197.303ZM202.419 50.5552V44.8011C202.419 44.2347 202.295 43.8414 202.048 43.6191C201.801 43.3968 201.473 43.2857 201.06 43.2857H197.348V42.0438H201.467C201.969 42.0438 202.412 42.1379 202.794 42.3238C203.175 42.5098 203.477 42.8112 203.699 43.2237C203.92 43.6384 204.031 44.1877 204.031 44.8738V50.5531H202.417L202.419 50.5552Z" fill="white"/>
</svg>
