<svg width="16" height="16" viewBox="0 0 16 16" fill="none" xmlns="http://www.w3.org/2000/svg">
<g clip-path="url(#clip0_421_2720)">
<path d="M2.86563 15.3067C2.78763 15.7803 3.22563 16.1504 3.61163 15.9392L8.00163 13.533L12.3906 15.9392C12.7766 16.1504 13.2146 15.7803 13.1366 15.3078L12.3066 10.2628L15.8286 6.68338C16.1586 6.34847 15.9886 5.73625 15.5466 5.67012L10.6486 4.92778L8.46463 0.312663C8.42303 0.219111 8.35739 0.140071 8.27534 0.0847254C8.19329 0.0293796 8.09821 0 8.00113 0C7.90405 0 7.80897 0.0293796 7.72692 0.0847254C7.64487 0.140071 7.57923 0.219111 7.53763 0.312663L5.35363 4.92884L0.45563 5.67119C0.01463 5.73732 -0.15637 6.34954 0.17263 6.68444L3.69563 10.2639L2.86563 15.3089V15.3067ZM7.77063 12.3555L4.08463 14.3756L4.77863 10.1551C4.79489 10.058 4.78853 9.95804 4.76011 9.86412C4.73168 9.7702 4.68207 9.68517 4.61563 9.61649L1.70963 6.66205L5.76163 6.04769C5.84553 6.03418 5.92512 5.99917 5.99356 5.94568C6.06201 5.89218 6.11728 5.82178 6.15463 5.74052L7.99963 1.83895L9.84663 5.74052C9.88399 5.82178 9.93925 5.89218 10.0077 5.94568C10.0761 5.99917 10.1557 6.03418 10.2396 6.04769L14.2916 6.66098L11.3856 9.61542C11.319 9.68421 11.2693 9.76942 11.2409 9.86354C11.2125 9.95766 11.2062 10.0578 11.2226 10.1551L11.9166 14.3756L8.23063 12.3555C8.15935 12.3163 8.08032 12.2958 8.00013 12.2958C7.91994 12.2958 7.84091 12.3163 7.76963 12.3555H7.77063Z" fill="#F8D24C"/>
</g>
<defs>
<clipPath id="clip0_421_2720">
<rect width="16" height="16" fill="white"/>
</clipPath>
</defs>
</svg>
